<svg width="32" height="32" viewBox="0 0 32 32" fill="none" xmlns="http://www.w3.org/2000/svg">
<path fill-rule="evenodd" clip-rule="evenodd" d="M10.6667 3.66675C10.2246 3.66675 9.80071 3.84234 9.48815 4.1549C9.17559 4.46746 9 4.89139 9 5.33341V28.3334H23V5.33341C23 4.89139 22.8244 4.46746 22.5118 4.1549C22.1993 3.84234 21.7754 3.66675 21.3333 3.66675H10.6667ZM25 11.0001V5.33341C25 4.36095 24.6137 3.42832 23.9261 2.74069C23.2384 2.05306 22.3058 1.66675 21.3333 1.66675H10.6667C9.6942 1.66675 8.76157 2.05306 8.07394 2.74069C7.38631 3.42832 7 4.36095 7 5.33341V15.0001H5.33333C4.36087 15.0001 3.42824 15.3864 2.74061 16.074C2.05297 16.7617 1.66666 17.6943 1.66666 18.6667V26.6667C1.66666 27.6392 2.05297 28.5718 2.74061 29.2595C3.42824 29.9471 4.36087 30.3334 5.33333 30.3334H26.6667C27.6391 30.3334 28.5718 29.9471 29.2594 29.2595C29.947 28.5718 30.3333 27.6392 30.3333 26.6667V14.6667C30.3333 13.6943 29.947 12.7617 29.2594 12.074C28.5718 11.3864 27.6391 11.0001 26.6667 11.0001H25ZM25 13.0001V28.3334H26.6667C27.1087 28.3334 27.5326 28.1578 27.8452 27.8453C28.1577 27.5327 28.3333 27.1088 28.3333 26.6667V14.6667C28.3333 14.2247 28.1577 13.8008 27.8452 13.4882C27.5326 13.1757 27.1087 13.0001 26.6667 13.0001H25ZM7 17.0001H5.33333C4.8913 17.0001 4.46738 17.1757 4.15482 17.4882C3.84226 17.8008 3.66666 18.2247 3.66666 18.6667V26.6667C3.66666 27.1088 3.84226 27.5327 4.15482 27.8453C4.46738 28.1578 4.8913 28.3334 5.33333 28.3334H7V17.0001ZM12.3333 8.00008C12.3333 7.4478 12.781 7.00008 13.3333 7.00008H18.6667C19.2189 7.00008 19.6667 7.4478 19.6667 8.00008C19.6667 8.55237 19.2189 9.00008 18.6667 9.00008H13.3333C12.781 9.00008 12.3333 8.55237 12.3333 8.00008ZM12.3333 13.3334C12.3333 12.7811 12.781 12.3334 13.3333 12.3334H18.6667C19.2189 12.3334 19.6667 12.7811 19.6667 13.3334C19.6667 13.8857 19.2189 14.3334 18.6667 14.3334H13.3333C12.781 14.3334 12.3333 13.8857 12.3333 13.3334ZM12.3333 18.6667C12.3333 18.1145 12.781 17.6667 13.3333 17.6667H18.6667C19.2189 17.6667 19.6667 18.1145 19.6667 18.6667C19.6667 19.219 19.2189 19.6667 18.6667 19.6667H13.3333C12.781 19.6667 12.3333 19.219 12.3333 18.6667ZM12.3333 24.0001C12.3333 23.4478 12.781 23.0001 13.3333 23.0001H18.6667C19.2189 23.0001 19.6667 23.4478 19.6667 24.0001C19.6667 24.5524 19.2189 25.0001 18.6667 25.0001H13.3333C12.781 25.0001 12.3333 24.5524 12.3333 24.0001Z" fill="white"/>
</svg>
