<svg width="32" height="32" viewBox="0 0 32 32" fill="none" xmlns="http://www.w3.org/2000/svg">
<path fill-rule="evenodd" clip-rule="evenodd" d="M2.74061 6.74069C3.42825 6.05306 4.36088 5.66675 5.33334 5.66675H26.6667C27.6391 5.66675 28.5718 6.05306 29.2594 6.74069C29.947 7.42832 30.3333 8.36095 30.3333 9.33341V12.0001C30.3333 12.5524 29.8856 13.0001 29.3333 13.0001C28.5377 13.0001 27.7746 13.3162 27.212 13.8788C26.6494 14.4414 26.3333 15.2044 26.3333 16.0001C26.3333 16.7957 26.6494 17.5588 27.212 18.1214C27.7746 18.684 28.5377 19.0001 29.3333 19.0001C29.8856 19.0001 30.3333 19.4478 30.3333 20.0001V22.6667C30.3333 23.6392 29.947 24.5718 29.2594 25.2595C28.5718 25.9471 27.6391 26.3334 26.6667 26.3334H5.33334C4.36088 26.3334 3.42825 25.9471 2.74061 25.2595C2.05298 24.5718 1.66667 23.6392 1.66667 22.6667V20.0001C1.66667 19.4478 2.11439 19.0001 2.66667 19.0001C3.46232 19.0001 4.22538 18.684 4.78799 18.1214C5.3506 17.5588 5.66667 16.7957 5.66667 16.0001C5.66667 15.2044 5.3506 14.4414 4.78799 13.8788C4.22538 13.3162 3.46232 13.0001 2.66667 13.0001C2.11439 13.0001 1.66667 12.5524 1.66667 12.0001V9.33341C1.66667 8.36095 2.05298 7.42832 2.74061 6.74069ZM18.3333 24.3334V22.6667C18.3333 22.1145 17.8856 21.6667 17.3333 21.6667C16.7811 21.6667 16.3333 22.1145 16.3333 22.6667V24.3334H5.33334C4.89131 24.3334 4.46739 24.1578 4.15483 23.8453C3.84227 23.5327 3.66667 23.1088 3.66667 22.6667V20.8991C4.62012 20.7044 5.50382 20.234 6.20221 19.5356C7.13989 18.5979 7.66667 17.3262 7.66667 16.0001C7.66667 14.674 7.13989 13.4022 6.20221 12.4645C5.50382 11.7662 4.62012 11.2957 3.66667 11.1011V9.33341C3.66667 8.89139 3.84227 8.46746 4.15483 8.1549C4.46739 7.84234 4.89131 7.66675 5.33334 7.66675H16.3333V9.33341C16.3333 9.8857 16.7811 10.3334 17.3333 10.3334C17.8856 10.3334 18.3333 9.8857 18.3333 9.33341V7.66675H26.6667C27.1087 7.66675 27.5326 7.84234 27.8452 8.1549C28.1577 8.46746 28.3333 8.89139 28.3333 9.33341V11.1011C27.3799 11.2957 26.4962 11.7662 25.7978 12.4645C24.8601 13.4022 24.3333 14.674 24.3333 16.0001C24.3333 17.3262 24.8601 18.5979 25.7978 19.5356C26.4962 20.234 27.3799 20.7044 28.3333 20.8991V22.6667C28.3333 23.1088 28.1577 23.5327 27.8452 23.8453C27.5326 24.1578 27.1087 24.3334 26.6667 24.3334H18.3333ZM17.3333 13.6667C17.8856 13.6667 18.3333 14.1145 18.3333 14.6667V17.3334C18.3333 17.8857 17.8856 18.3334 17.3333 18.3334C16.7811 18.3334 16.3333 17.8857 16.3333 17.3334V14.6667C16.3333 14.1145 16.7811 13.6667 17.3333 13.6667Z" fill="white"/>
</svg>
